<?xml version="1.0" encoding="utf-8"?>
<!-- Generator: Adobe Illustrator 16.0.0, SVG Export Plug-In . SVG Version: 6.00 Build 0)  -->
<!DOCTYPE svg PUBLIC "-//W3C//DTD SVG 1.1//EN" "http://www.w3.org/Graphics/SVG/1.1/DTD/svg11.dtd">
<svg version="1.1" id="Layer_1" xmlns="http://www.w3.org/2000/svg" xmlns:xlink="http://www.w3.org/1999/xlink" x="0px" y="0px"
	 width="596px" height="76.46px" viewBox="0 0 596 76.46" enable-background="new 0 0 596 76.46" xml:space="preserve">
<g>
	<path fill="#B212B2" d="M22.76,51.251v20.584H8.135V11.167h24.207c4.639,0,8.744,0.854,12.313,2.563
		c3.57,1.708,6.334,4.139,8.293,7.291c1.957,3.153,2.938,6.73,2.938,10.73c0,5.916-2.119,10.646-6.355,14.187
		c-4.234,3.542-10.049,5.313-17.438,5.313H22.76z M22.76,39.959h9.582c2.834,0,4.994-0.708,6.479-2.125
		c1.486-1.417,2.23-3.417,2.23-6c0-2.833-0.764-5.097-2.291-6.792c-1.529-1.694-3.611-2.555-6.25-2.583h-9.75V39.959z"/>
	<path fill="#B212B2" d="M90.303,39.459l-4.625-0.333c-4.418,0-7.25,1.389-8.5,4.166v28.543H63.135V26.751h13.168l0.457,5.791
		c2.361-4.416,5.652-6.625,9.875-6.625c1.5,0,2.807,0.167,3.918,0.5L90.303,39.459z"/>
	<path fill="#B212B2" d="M92.094,48.876c0-4.5,0.875-8.507,2.625-12.021s4.264-6.215,7.541-8.104
		c3.277-1.889,7.125-2.834,11.543-2.834c6.75,0,12.068,2.091,15.959,6.271c3.889,4.181,5.832,9.869,5.832,17.063v0.5
		c0,7.028-1.951,12.604-5.854,16.729c-3.902,4.126-9.188,6.188-15.855,6.188c-6.416,0-11.568-1.923-15.457-5.771
		c-3.891-3.847-5.986-9.063-6.293-15.646L92.094,48.876z M106.135,49.751c0,4.167,0.654,7.223,1.959,9.167
		c1.307,1.945,3.236,2.916,5.791,2.916c5,0,7.557-3.846,7.668-11.541v-1.417c0-8.083-2.584-12.125-7.75-12.125
		c-4.695,0-7.236,3.486-7.625,10.458L106.135,49.751z"/>
	<path fill="#B212B2" d="M155.055,26.751l0.457,5.292c3.193-4.084,7.486-6.125,12.875-6.125c5.695,0,9.543,2.264,11.543,6.791
		c3.055-4.527,7.473-6.791,13.25-6.791c9.139,0,13.834,5.528,14.084,16.583v29.334H193.18V43.376c0-2.305-0.391-3.985-1.166-5.042
		c-0.779-1.055-2.195-1.583-4.25-1.583c-2.779,0-4.85,1.237-6.209,3.708l0.041,0.584v30.792h-14.084V43.46
		c0-2.361-0.375-4.069-1.125-5.126c-0.75-1.055-2.182-1.583-4.291-1.583c-2.695,0-4.75,1.237-6.166,3.708v31.376h-14.043V26.751
		H155.055z"/>
	<path fill="#B212B2" d="M237.098,72.668c-6.916,0-12.516-2.062-16.793-6.188c-4.277-4.125-6.416-9.492-6.416-16.104v-1.167
		c0-4.61,0.855-8.68,2.563-12.208c1.709-3.528,4.201-6.257,7.479-8.188c3.277-1.93,7.168-2.896,11.668-2.896
		c6.334,0,11.334,1.966,15,5.896c3.666,3.931,5.5,9.411,5.5,16.438v5.458h-27.916c0.5,2.529,1.596,4.515,3.291,5.959
		c1.693,1.445,3.889,2.166,6.584,2.166c4.443,0,7.916-1.555,10.416-4.666l6.416,7.583c-1.75,2.417-4.229,4.341-7.436,5.771
		C244.244,71.954,240.791,72.668,237.098,72.668 M235.514,36.751c-4.111,0-6.555,2.723-7.332,8.167h14.166v-1.084
		c0.057-2.25-0.514-3.993-1.709-5.229C239.445,37.37,237.736,36.751,235.514,36.751"/>
	<path fill="#B212B2" d="M285.35,59.168c0-1.194-0.625-2.152-1.875-2.875c-1.25-0.722-3.625-1.472-7.125-2.25
		c-3.5-0.777-6.391-1.798-8.668-3.063c-2.277-1.263-4.016-2.798-5.207-4.604c-1.195-1.805-1.793-3.875-1.793-6.208
		c0-4.139,1.709-7.549,5.125-10.23c3.418-2.68,7.889-4.021,13.418-4.021c5.943,0,10.721,1.348,14.332,4.042
		c3.611,2.695,5.418,6.236,5.418,10.625h-14.084c0-3.61-1.902-5.416-5.709-5.416c-1.473,0-2.707,0.41-3.707,1.229
		s-1.5,1.84-1.5,3.062c0,1.25,0.609,2.265,1.832,3.042c1.223,0.778,3.174,1.417,5.854,1.917c2.682,0.5,5.035,1.097,7.064,1.792
		c6.775,2.333,10.166,6.514,10.166,12.541c0,4.112-1.826,7.459-5.479,10.042s-8.383,3.875-14.188,3.875
		c-3.863,0-7.309-0.694-10.334-2.083c-3.029-1.389-5.391-3.277-7.084-5.667c-1.695-2.389-2.541-4.902-2.541-7.542h13.125
		c0.055,2.084,0.75,3.604,2.084,4.563c1.332,0.958,3.041,1.437,5.125,1.437c1.916,0,3.354-0.388,4.313-1.166
		C284.869,61.433,285.35,60.418,285.35,59.168"/>
	<text transform="matrix(1 0 0 1.4822 326.6738 70.7876)" fill="#B212B2" font-family="'Roboto-Black'" font-size="65.6461">´</text>
	<path fill="#B212B2" d="M359.049,44.429c0,15.637-12.676,28.313-28.313,28.313c-15.639,0-28.314-12.676-28.314-28.313
		s12.676-28.313,28.314-28.313C346.373,16.116,359.049,28.792,359.049,44.429"/>
	<path fill="none" stroke="#FFFFFF" stroke-width="2.499" stroke-miterlimit="10" d="M342.074,44.952h13.301
		c0,0-1.25-24.084-24.609-24.387c-8.074-0.104-13.516,2.779-17.178,6.595c-6.928,7.224-7.49,17.792-7.49,17.792h12.799
		c0,0,0.404-4.851,3.643-8.249c1.768-1.854,4.379-3.274,8.227-3.239C341.67,33.565,342.074,44.952,342.074,44.952z"/>
	
		<line fill="none" stroke="#FFFFFF" stroke-width="2.499" stroke-miterlimit="10" x1="313.588" y1="27.16" x2="322.539" y2="36.702"/>
	
		<line fill="none" stroke="#FFFFFF" stroke-width="2.499" stroke-miterlimit="10" x1="330.768" y1="20.565" x2="330.768" y2="33.464"/>
	
		<line fill="none" stroke="#FFFFFF" stroke-width="2.499" stroke-miterlimit="10" x1="338.748" y1="36.703" x2="348.166" y2="27.684"/>
	<path d="M335.422,45.153c0,2.394-1.939,4.333-4.332,4.333s-4.334-1.939-4.334-4.333c0-2.393,1.941-4.333,4.334-4.333
		c0.729,0,1.414,0.18,2.018,0.497C334.484,42.043,335.422,43.488,335.422,45.153"/>
	<path d="M348.826,34.773l-15.719,6.543c0,0,1.625,0.803,2.273,3.227L348.826,34.773z"/>
	<path fill="#B212B2" d="M379.318,26.074l0.459,5.292c3.193-4.084,7.486-6.125,12.875-6.125c5.695,0,9.541,2.264,11.541,6.791
		c3.057-4.527,7.475-6.791,13.25-6.791c9.141,0,13.834,5.528,14.084,16.583v29.334h-14.084V42.699c0-2.305-0.389-3.985-1.166-5.042
		c-0.777-1.055-2.193-1.583-4.25-1.583c-2.777,0-4.848,1.237-6.209,3.708l0.043,0.584v30.792h-14.084V42.783
		c0-2.361-0.375-4.069-1.125-5.126c-0.75-1.055-2.182-1.583-4.291-1.583c-2.695,0-4.75,1.237-6.168,3.708v31.376h-14.041V26.074
		H379.318z"/>
	<path fill="#B212B2" d="M461.363,71.991c-6.916,0-12.516-2.062-16.793-6.188c-4.277-4.125-6.416-9.492-6.416-16.104v-1.167
		c0-4.61,0.854-8.68,2.563-12.208c1.707-3.528,4.201-6.257,7.479-8.188c3.277-1.93,7.168-2.896,11.668-2.896
		c6.334,0,11.334,1.966,15,5.896c3.666,3.931,5.5,9.411,5.5,16.438v5.458h-27.916c0.5,2.529,1.596,4.515,3.291,5.959
		c1.693,1.445,3.889,2.166,6.584,2.166c4.443,0,7.916-1.555,10.416-4.666l6.416,7.583c-1.75,2.417-4.229,4.341-7.438,5.771
		C468.508,71.276,465.057,71.991,461.363,71.991 M459.779,36.074c-4.111,0-6.557,2.723-7.332,8.167h14.166v-1.084
		c0.055-2.25-0.516-3.993-1.709-5.229C463.709,36.692,462.002,36.074,459.779,36.074"/>
	<path fill="#B212B2" d="M502.363,14.865v11.208h7.418v9.751h-7.418v20.625c0,1.695,0.307,2.875,0.918,3.542
		c0.609,0.666,1.818,1,3.625,1c1.389,0,2.555-0.084,3.5-0.25v10.042c-2.529,0.805-5.168,1.208-7.918,1.208
		c-4.832,0-8.402-1.138-10.707-3.417c-2.309-2.277-3.459-5.735-3.459-10.375V35.824h-5.75v-9.751h5.75V14.865H502.363z"/>
	<path fill="#B212B2" d="M542.572,38.782l-4.625-0.333c-4.416,0-7.25,1.389-8.5,4.166v28.543h-14.041V26.074h13.166l0.459,5.791
		c2.361-4.416,5.652-6.625,9.875-6.625c1.5,0,2.807,0.167,3.916,0.5L542.572,38.782z"/>
	<path fill="#B212B2" d="M544.365,48.199c0-4.5,0.875-8.507,2.625-12.021c1.75-3.514,4.264-6.215,7.541-8.104
		s7.125-2.834,11.543-2.834c6.75,0,12.068,2.091,15.959,6.271c3.889,4.181,5.832,9.869,5.832,17.063v0.5
		c0,7.028-1.951,12.604-5.854,16.729c-3.902,4.126-9.188,6.188-15.855,6.188c-6.416,0-11.568-1.923-15.457-5.771
		c-3.891-3.847-5.988-9.063-6.293-15.646L544.365,48.199z M558.406,49.074c0,4.167,0.652,7.223,1.959,9.167
		c1.305,1.945,3.234,2.916,5.791,2.916c5,0,7.557-3.846,7.668-11.541v-1.417c0-8.083-2.584-12.125-7.75-12.125
		c-4.695,0-7.236,3.486-7.625,10.458L558.406,49.074z"/>
</g>
</svg>
