<?xml version="1.0" encoding="utf-8"?>
<!-- Generator: Adobe Illustrator 16.0.0, SVG Export Plug-In . SVG Version: 6.00 Build 0)  -->
<!DOCTYPE svg PUBLIC "-//W3C//DTD SVG 1.1//EN" "http://www.w3.org/Graphics/SVG/1.1/DTD/svg11.dtd">
<svg version="1.1" id="Layer_1" xmlns="http://www.w3.org/2000/svg" xmlns:xlink="http://www.w3.org/1999/xlink" x="0px" y="0px"
	 width="250.818px" height="233.627px" viewBox="0 0 250.818 233.627" enable-background="new 0 0 250.818 233.627"
	 xml:space="preserve">
<g>
	<path fill="#C61E36" d="M122.569,18.799L20.911,90.039c-6.092,4.269-9.944,11.101-10.256,18.532
		c-0.509,12.158,1.883,31.021,17.746,46.961c5.14,5.164,12.331,7.755,19.581,7.023l124.796-12.604L122.569,18.799z"/>
	<path fill="#6800E5" d="M172.347,75.657c11.877,36.726,11.78,70.614-3.927,75.694c-15.706,5.079-35.058-25.088-46.935-61.813
		c-11.876-36.725-11.78-66.102,3.926-71.181C141.118,13.278,160.471,38.933,172.347,75.657"/>
	<path fill="#B212B2" d="M138.188,107.35l-54.06,19.094L71.107,89.58l54.061-19.094c10.18-3.596,21.346,1.742,24.941,11.922
		C153.705,92.587,148.367,103.754,138.188,107.35"/>
	<path fill="#B212B2" d="M50.709,158.136l23.411,58.349c0.765,1.904,2.43,3.301,4.438,3.721l14.651,3.068
		c4.98,1.042,8.994-4.083,6.786-8.669l-29.756-61.802c-1.067-2.217-3.355-3.582-5.813-3.468l-8.307,0.387
		C51.9,149.917,49.136,154.217,50.709,158.136"/>
	<g>
		<defs>
			<rect id="SVGID_104_" x="50.263" y="150.156" width="50.354" height="73.254"/>
		</defs>
		<clipPath id="SVGID_2_">
			<use xlink:href="#SVGID_104_"  overflow="visible"/>
		</clipPath>
		<path clip-path="url(#SVGID_2_)" fill="#99152A" d="M98.526,211.555c-9.708-2.842-17.941-9.555-22.621-18.726l-21.774-42.673
			c-3.033,1.205-4.73,4.72-3.422,7.979l23.411,58.349c0.765,1.904,2.429,3.301,4.438,3.721l14.651,3.068
			c4.981,1.042,8.994-4.083,6.786-8.669L98.526,211.555z"/>
	</g>
	<g>
		<defs>
			<rect id="SVGID_106_" x="113.051" y="17.935" width="54.813" height="133.953"/>
		</defs>
		<clipPath id="SVGID_4_">
			<use xlink:href="#SVGID_106_"  overflow="visible"/>
		</clipPath>
		<path clip-path="url(#SVGID_4_)" fill="#99152A" d="M132.563,88.127c-10.063-31.12-13.018-57.436-5.408-70.192
			c-0.584,0.104-1.166,0.237-1.742,0.423c-15.705,5.079-15.803,34.457-3.927,71.181c11.737,36.294,30.809,66.158,46.379,61.953
			C154.762,142.012,141.888,116.963,132.563,88.127"/>
	</g>
	<path fill="#6800E5" d="M171.083,150.122l1.695-0.171l-0.308-0.804C172.027,149.505,171.563,149.828,171.083,150.122"/>
	<path fill="#6800E5" d="M121.485,91.043c-11.182-34.58-11.573-64.141,1.354-71.542l-0.27-0.702L20.911,90.039
		c-6.092,4.269-9.944,11.101-10.256,18.532c-0.509,12.159,1.883,31.021,17.746,46.961c5.14,5.164,12.331,7.755,19.581,7.023
		l112.716-11.385C147.12,146.532,131.449,121.854,121.485,91.043"/>
	<path fill="#B212B2" d="M172.471,149.147c-0.443,0.357-0.907,0.681-1.388,0.975l1.695-0.171L172.471,149.147z"/>
	<path fill="#B212B2" d="M121.485,91.043c-11.182-34.58-11.573-64.141,1.354-71.542l-0.27-0.702l-15.304,10.725
		c-4.1,14.63-1.357,38.571,7.274,65.261c8.129,25.138,19.731,46.536,31.267,57.891l14.892-1.504
		C147.12,146.532,131.449,121.854,121.485,91.043"/>
	<path fill="#B212B2" d="M168.771,159.384l1.854-0.187l-0.336-0.879C169.804,158.71,169.296,159.063,168.771,159.384"/>
	<g>
		<defs>
			<rect id="SVGID_108_" x="10.849" y="117.245" width="149.85" height="45.432"/>
		</defs>
		<clipPath id="SVGID_6_">
			<use xlink:href="#SVGID_108_"  overflow="visible"/>
		</clipPath>
		<path clip-path="url(#SVGID_6_)" fill="#99152A" d="M47.982,162.556l112.716-11.385c-8.421-2.877-17.069-14.046-24.799-29.462
			c-59.206,17.853-104.691,4.254-125.051-4.465c0.96,11.461,5.094,25.77,17.553,38.289
			C33.541,160.696,40.732,163.287,47.982,162.556"/>
	</g>
	<path fill="#C61E36" d="M172.471,149.147c-0.443,0.357-0.907,0.681-1.388,0.975l1.695-0.171L172.471,149.147z"/>
	<path fill="#B212B2" d="M19.995,90.762c-5.545,4.294-9.045,10.771-9.34,17.811c-0.509,12.157,1.883,31.021,17.746,46.961
		c5.024,5.047,12.009,7.613,19.092,7.044C20.925,135.941,18.443,107.5,19.995,90.762"/>
	<polygon fill="#EDBE00" points="153.618,65.523 202.143,5.509 211.276,14.222 	"/>
	<polygon fill="#EDBE00" points="156.001,77.168 240.552,49.781 243.579,62.036 	"/>
	<polygon fill="#EDBE00" points="160.107,95.893 237.08,101.512 235.135,113.984 	"/>
</g>
</svg>
