<?xml version="1.0" encoding="utf-8"?>
<!-- Generator: Adobe Illustrator 16.0.0, SVG Export Plug-In . SVG Version: 6.00 Build 0)  -->
<!DOCTYPE svg PUBLIC "-//W3C//DTD SVG 1.1//EN" "http://www.w3.org/Graphics/SVG/1.1/DTD/svg11.dtd">
<svg version="1.1" id="Layer_1" xmlns="http://www.w3.org/2000/svg" xmlns:xlink="http://www.w3.org/1999/xlink" x="0px" y="0px"
	 width="304.484px" height="244.396px" viewBox="0 0 304.484 244.396" enable-background="new 0 0 304.484 244.396"
	 xml:space="preserve">
<g>
	<rect x="58.66" y="70.426" fill="#F3CC99" width="12.895" height="20.955"/>
	<path fill="#6800E5" d="M100.78,82.617c-13.3-1.21-34.748-1.21-34.748-1.21h-0.615c-5.719,0.203-30.399,0.318-34.748,1.21
		c-9.367,1.923-11.297,39.086-11.536,60.717c-0.088,8.01,6.366,14.541,14.376,14.541h31.908h0.615h46.232
		C112.265,157.875,114.077,83.829,100.78,82.617"/>
	<path fill="#B212B2" d="M80.22,81.601c-8.443-0.191-15.201-0.193-15.201-0.193h-0.66c-2.346,0.078-7.672,0.143-13.608,0.243v76.225
		h29.47V81.601z"/>
	<path fill="#F3CC99" d="M72.483,26.851c-4.91,0.485-9.84,0.485-14.752,0c-6.035-0.595-13.58,0.361-13.58,8.865
		c0,40.65,20.955,40.352,20.955,40.352s20.957,0.299,20.957-40.352C86.063,27.212,78.521,26.256,72.483,26.851"/>
	<path fill="#F3CC99" d="M52.771,52.543c0.739,4.234-1.458,8.154-4.909,8.756c-3.449,0.602-6.846-2.343-7.584-6.577
		s-0.613-7.758,4.909-8.757C48.634,45.342,52.033,48.309,52.771,52.543"/>
	<path fill="#B212B2" d="M46.881,27.925c1.726-5.662,8.274-8.539,14.192-8.543c5.92-0.004,11.621,2.091,17.472,2.994
		c5.849,0.903,12.522,0.323,16.587-3.979c3.137,6.048-0.611,13.889-6.473,17.361c-5.861,3.474-13.08,3.593-19.871,3.063
		c-4.967-0.389-10.088-1.135-14.293-3.802C50.289,32.354,45.428,32.688,46.881,27.925"/>
	<path fill="#B212B2" d="M54.63,26.709c0,0-3.381,18.729-1.774,28.461l-4.566,2.095c0,0,1.354-2.798,0.081-7.115
		c-0.755-2.556-3.964-3.186-5.732-2.371c-3.639,1.673-2.359,6.943-2.359,6.943S28.436,19.664,54.63,26.709"/>
	<rect x="62.085" y="81.407" fill="#F2DD3D" width="5.688" height="50.106"/>
	<polygon fill="#F2DD3D" points="97.702,157.852 53.069,157.852 81.682,100.147 126.314,100.147 	"/>
	<path fill="#F3CC99" d="M59.956,139.289v18.561c8.666-0.129,15.629-4.225,15.629-9.279S68.622,139.422,59.956,139.289"/>
	<path fill="#6800E5" d="M60.573,139.439v18.436H25.765c-3.736,0-6.838-2.887-7.078-6.615c-1.19-18.369-3.071-68.643,11.981-68.643
		c18.421,0.001,12.028-0.741,12.028-0.741l-1.48,48.892c-0.228,3.824,2.621,7.137,6.435,7.486L60.573,139.439z"/>
	<polygon fill="#F0EDEB" points="64.929,81.407 46.438,81.407 55.683,95.236 	"/>
	<polygon fill="#F0EDEB" points="64.929,81.407 83.419,81.407 74.175,95.236 	"/>
	<rect x="114.91" y="123.899" fill="#362F40" width="4.68" height="40.729"/>
	<path fill="#777777" d="M128.45,125.191c2.338,1.281,3.194,4.217,1.912,6.555c-1.283,2.338-4.22,3.193-6.557,1.91l-21.525-11.808
		l4.645-8.465L128.45,125.191z"/>
	<path fill="#ABABAB" d="M78.198,115.553c-2.338-1.283-4.194-7.949-1.256-13.305c2.938-5.354,9.557-7.372,11.895-6.09l14.757,8.095
		c1.649,0.904,2.253,2.976,1.349,4.625l-7.361,13.42c-0.905,1.65-2.977,2.253-4.627,1.349L78.198,115.553z"/>
	
		<rect x="100.741" y="108.435" transform="matrix(-0.8767 -0.4811 0.4811 -0.8767 140.3862 271.2124)" fill="#362F40" width="8.425" height="18.356"/>
	<g>
		<defs>
			<rect id="SVGID_96_" x="75.431" y="102.209" width="54.74" height="32.041"/>
		</defs>
		<clipPath id="SVGID_2_">
			<use xlink:href="#SVGID_96_"  overflow="visible"/>
		</clipPath>
		<path clip-path="url(#SVGID_2_)" fill="#D2D0D4" d="M76.968,102.209l53.203,29.814c-1.359,2.115-4.129,2.861-6.365,1.633
			l-17.563-9.634l-2.01,3.664l-7.387-4.053l0.734-1.336c-0.906,1.649-2.976,2.253-4.626,1.348l-14.758-8.093
			c-2.337-1.283-4.192-7.949-1.256-13.305C76.95,102.233,76.962,102.223,76.968,102.209"/>
	</g>
	<rect x="31.054" y="162.412" fill="#074F92" width="95.223" height="71.799"/>
	<g>
		<defs>
			<rect id="SVGID_98_" x="31.054" y="162.412" width="95.225" height="34.559"/>
		</defs>
		<clipPath id="SVGID_4_">
			<use xlink:href="#SVGID_98_"  overflow="visible"/>
		</clipPath>
		<polygon clip-path="url(#SVGID_4_)" fill="#A8A398" points="126.277,196.969 31.054,184.264 31.054,162.412 126.277,162.412 		"/>
	</g>
	<polygon fill="#074F92" points="17.268,174.891 140.063,174.891 149.103,158.018 8.227,158.018 	"/>
	<path fill="#F3CC99" d="M170.628,130.229c0.834,0.004,1.635,0.094,2.436,0.188l-0.09,22.424c-0.801,0.088-1.601,0.17-2.436,0.166
		c-8.739-0.033-15.801-5.16-15.776-11.449C154.787,135.266,161.89,130.193,170.628,130.229"/>
	<path fill="#B212B2" d="M173.157,131.57l-0.086,21.863c0,0,30.297,0.109,47.918-4.264c3.143-0.781,5.926-2.512,7.959-5.033
		c4.888-6.072,14.396-19.169,18.028-33.212c4.677-18.076-12.526-27.007-28.514,9.074c-2.124,4.797-6.726,8.046-11.95,8.521
		L173.157,131.57z"/>
	
		<rect x="235.831" y="70.004" transform="matrix(-1 -0.0039 0.0039 -1 484.8847 166.6098)" fill="#F3CC99" width="13.547" height="25.658"/>
	<path fill="#F3CC99" d="M216.166,53.849c-0.051,13.071,10.274,23.707,23.065,23.757c12.787,0.051,23.195-10.503,23.248-23.573
		c0.051-13.068-10.274-23.703-23.063-23.754C226.626,30.229,216.218,40.781,216.166,53.849"/>
	<path fill="#6800E5" d="M210.411,44.878c0,0-0.825-35.222,43.975-18.159c0,0,32.879-18.202,13.719,69.044l-22.182-3.143
		c0,0,4.256-24.088,4.874-35.834c0.622-11.746-4.644-22.38-4.644-22.38S234.032,49.794,210.411,44.878"/>
	<path fill="#6800E5" d="M268.653,169.715l-44.957-0.178c0,0-5.592-66.985,15.838-75.942
		C260.969,84.637,280.71,97.552,268.653,169.715"/>
	<path fill="#B212B2" d="M235.476,118.469c0.174-6.571,2-24.014,4.059-24.874c21.436-8.958,41.176,3.957,29.119,76.12l-40.496-0.16
		C234.436,153.787,235.038,135.203,235.476,118.469"/>
	<path fill="#F3CC99" d="M259.786,58.182c0.904-3.516-0.931-7.026-4.101-7.842c-3.167-0.815-6.471,1.371-7.375,4.887
		c-0.903,3.517,0.931,7.026,4.101,7.842C255.579,63.884,258.883,61.697,259.786,58.182"/>
	<path fill="#F3CC99" d="M177.37,132.57c0.834,0.004,1.635,0.092,2.435,0.186l-0.088,22.426c-0.802,0.086-1.603,0.17-2.437,0.166
		c-8.736-0.035-15.801-5.16-15.775-11.453C161.53,137.607,168.635,132.535,177.37,132.57"/>
	<path fill="#B212B2" d="M179.9,133.912l-0.086,21.863c0,0,30.295,0.109,47.917-4.264c3.143-0.781,5.926-2.512,7.958-5.033
		c4.888-6.072,14.396-19.169,18.028-33.214c4.678-18.078-12.526-27.005-28.514,9.075c-2.123,4.794-6.724,8.047-11.949,8.523
		L179.9,133.912z"/>
	<rect x="182.11" y="123.899" fill="#362F40" width="4.658" height="40.729"/>
	<path fill="#777777" d="M173.294,125.191c-2.326,1.281-3.178,4.217-1.902,6.555c1.277,2.338,4.198,3.193,6.525,1.91l21.42-11.808
		l-4.622-8.465L173.294,125.191z"/>
	<path fill="#ABABAB" d="M223.3,115.553c2.326-1.283,4.174-7.949,1.25-13.305c-2.925-5.354-9.51-7.372-11.836-6.09l-14.685,8.095
		c-1.642,0.904-2.242,2.976-1.343,4.625l7.326,13.42c0.9,1.65,2.961,2.253,4.604,1.349L223.3,115.553z"/>
	<polygon fill="#362F40" points="204.743,123.634 197.393,127.687 188.607,111.593 195.958,107.542 	"/>
	<g>
		<defs>
			<rect id="SVGID_100_" x="171.583" y="102.209" width="54.47" height="32.041"/>
		</defs>
		<clipPath id="SVGID_6_">
			<use xlink:href="#SVGID_100_"  overflow="visible"/>
		</clipPath>
		<path clip-path="url(#SVGID_6_)" fill="#D2D0D4" d="M224.524,102.209l-52.941,29.814c1.352,2.115,4.107,2.861,6.334,1.633
			l17.477-9.634l2,3.664l7.35-4.053l-0.731-1.336c0.902,1.649,2.962,2.253,4.603,1.348l14.686-8.093
			c2.327-1.283,4.174-7.949,1.25-13.305C224.542,102.233,224.53,102.223,224.524,102.209"/>
	</g>
	<rect x="175.457" y="162.412" fill="#074F92" width="94.756" height="71.799"/>
	<g>
		<defs>
			<rect id="SVGID_102_" x="175.456" y="162.412" width="94.757" height="34.559"/>
		</defs>
		<clipPath id="SVGID_8_">
			<use xlink:href="#SVGID_102_"  overflow="visible"/>
		</clipPath>
		<polygon clip-path="url(#SVGID_8_)" fill="#A8A398" points="175.456,196.969 270.212,184.264 270.212,162.412 175.456,162.412 		
			"/>
	</g>
	<polygon fill="#074F92" points="283.931,174.891 161.738,174.891 152.743,158.018 292.929,158.018 	"/>
</g>
</svg>
